<svg xmlns="http://www.w3.org/2000/svg" viewBox="3042.8 41.2 89.2 69.8"><defs><style>.cls-1{fill:none;stroke:rgba(103,255,156,.2);fill-rule:evenodd}</style></defs><g id="Group_3" data-name="Group 3" transform="translate(2700)"><path id="Path_7" data-name="Path 7" class="cls-1" d="M1019 53.5h-1.1a15.4 15.4 0 0 1-15.4-15.3V21.4c5.1 0 17.9 1 24.9 10.8a15.4 15.4 0 0 1 1.8 14.7 9.6 9.6 0 0 1-5 5.3c3.2-12.3-3-22.4-16-26 9.3 3.8 17 17.1 10.8 27.3z" transform="translate(-659.2 20.2)"/><path id="Path_11" data-name="Path 11" class="cls-1" d="M1010 36.2h-.4a7.1 7.1 0 0 1-7.1-7v-7.8c2.3 0 8.2.5 11.4 5a7.1 7.1 0 0 1 .9 6.7 4.4 4.4 0 0 1-2.3 2.5c1.4-5.7-1.4-10.3-7.4-12 4.3 1.8 7.8 8 5 12.6z" transform="translate(-610.2 65.2)"/></g></svg>