<?xml version="1.0" encoding="utf-8"?>
<!-- Generator: Adobe Illustrator 22.0.1, SVG Export Plug-In . SVG Version: 6.00 Build 0)  -->
<svg version="1.1" id="Camada_1" xmlns="http://www.w3.org/2000/svg" xmlns:xlink="http://www.w3.org/1999/xlink" x="0px" y="0px"
	 viewBox="0 0 211.5 52" style="enable-background:new 0 0 211.5 52;" xml:space="preserve">
<style type="text/css">
	.st0{fill:#3CB054;}
	.st1{enable-background:new;}
	.st2{fill:#333333;}
</style>
<g transform="translate(-6832 -2761)">
	<path class="st0" d="M6855.9,2813c-0.6,0-1.1,0.1-1.7,0.1c-12.3,0-22.3-10-22.3-22.3c0-0.1,0-0.2,0-0.3v-0.3l0,0v-23.6l0,0
		c7.5-0.1,25.9,1.5,36,15.6c4.4,6.2,5.4,14.2,2.6,21.2l0,0c-1.3,3.4-3.9,6.2-7.2,7.7c4.6-17.8-4.3-32.4-23.2-37.5
		C6853.7,2778.9,6864.9,2798.3,6855.9,2813z"/>
	<g class="st1">
		<path class="st2" d="M6910.8,2790.1c0,5.4-3.9,9.3-8.9,9.3c-2.5,0-4.3-1-5.5-2.6v9.5h-3.9v-25.1h3.9v2.1c1.2-1.6,3-2.6,5.5-2.6
			C6906.9,2780.8,6910.8,2784.7,6910.8,2790.1z M6896.1,2790.1c0,3.2,2.2,5.7,5.3,5.7c3.3,0,5.3-2.6,5.3-5.7c0-3.1-2-5.7-5.3-5.7
			C6898.3,2784.5,6896.1,2786.9,6896.1,2790.1z"/>
		<path class="st2" d="M6931.5,2790.1c0,0.5,0,1-0.1,1.4h-13.1c0.5,3.2,2.8,4.5,5.3,4.5c1.8,0,3.6-0.7,5.1-1.9l1.9,2.8
			c-2.2,1.8-4.6,2.5-7.3,2.5c-5.3,0-9.1-3.7-9.1-9.3c0-5.5,3.6-9.3,8.8-9.3C6928.1,2780.8,6931.5,2784.6,6931.5,2790.1z
			 M6918.4,2788.6h9.2c-0.4-2.8-2-4.4-4.5-4.4C6920.3,2784.3,6918.7,2786,6918.4,2788.6z"/>
		<path class="st2" d="M6952.2,2790.1c0,0.5,0,1-0.1,1.4h-13.1c0.5,3.2,2.8,4.5,5.3,4.5c1.8,0,3.6-0.7,5.1-1.9l1.9,2.8
			c-2.2,1.8-4.6,2.5-7.3,2.5c-5.3,0-9.1-3.7-9.1-9.3c0-5.5,3.6-9.3,8.8-9.3C6948.8,2780.8,6952.2,2784.6,6952.2,2790.1z
			 M6939.1,2788.6h9.2c-0.4-2.8-2-4.4-4.5-4.4C6941,2784.3,6939.5,2786,6939.1,2788.6z"/>
		<path class="st2" d="M6969,2781.3l-0.9,3.8c-0.8-0.4-2-0.6-2.9-0.6c-2.5,0-4.2,1.7-4.2,4.8v9.7h-3.9v-17.7h3.8v2
			c1.2-1.7,3-2.5,5.1-2.5C6967.2,2780.8,6968.1,2781,6969,2781.3z"/>
		<path class="st2" d="M6986.8,2783.7l-2.5,2.6c-1.3-1.2-2.6-1.8-4.3-1.8c-3,0-5.2,2.3-5.2,5.7s2.3,5.7,5.2,5.7
			c1.7,0,3.2-0.8,4.3-1.8l2.4,2.7c-1.6,1.9-4,2.8-6.6,2.8c-5.6,0-9.3-4-9.3-9.3s3.7-9.3,9.3-9.3
			C6982.9,2780.8,6985.3,2781.8,6986.8,2783.7z"/>
		<path class="st2" d="M7008.6,2790.1c0,5.3-4.1,9.3-9.5,9.3s-9.5-4-9.5-9.3s4.1-9.3,9.5-9.3S7008.6,2784.8,7008.6,2790.1z
			 M6993.5,2790.1c0,3.3,2.4,5.7,5.5,5.7c3.2,0,5.6-2.3,5.6-5.7s-2.4-5.7-5.6-5.7C6995.9,2784.5,6993.5,2786.8,6993.5,2790.1z"/>
		<path class="st2" d="M7018,2775.2c0,1.6-1.2,2.7-2.7,2.7c-1.6,0-2.7-1.1-2.7-2.7c0-1.5,1.1-2.7,2.7-2.7
			C7016.8,2772.4,7018,2773.6,7018,2775.2z M7013.4,2799v-17.7h3.9v17.7H7013.4z"/>
		<path class="st2" d="M7039.8,2787.9v11.1h-3.9v-9.9c0-3-1.5-4.6-4.1-4.6c-2.5,0-4.6,1.6-4.6,4.7v9.8h-3.9v-17.7h3.8v2.2
			c1.4-2.1,3.6-2.6,5.4-2.6C7036.8,2780.8,7039.8,2783.7,7039.8,2787.9z"/>
	</g>
</g>
</svg>
