<svg id="Camada_1" xmlns="http://www.w3.org/2000/svg" viewBox="0 0 211.5 52"><style>.st2{fill:#333}</style><path d="M6855.9 2813c-.6 0-1.1.1-1.7.1-12.3 0-22.3-10-22.3-22.3V2766.6c7.5-.1 25.9 1.5 36 15.6 4.4 6.2 5.4 14.2 2.6 21.2-1.3 3.4-3.9 6.2-7.2 7.7 4.6-17.8-4.3-32.4-23.2-37.5 13.6 5.3 24.8 24.7 15.8 39.4z" fill="#3cb054" transform="translate(-6832 -2761)"/><path class="st2" d="M6910.8 2790.1c0 5.4-3.9 9.3-8.9 9.3-2.5 0-4.3-1-5.5-2.6v9.5h-3.9v-25.1h3.9v2.1c1.2-1.6 3-2.6 5.5-2.6 5 .1 8.9 4 8.9 9.4zm-14.7 0c0 3.2 2.2 5.7 5.3 5.7 3.3 0 5.3-2.6 5.3-5.7s-2-5.7-5.3-5.7c-3.1.1-5.3 2.5-5.3 5.7zM6931.5 2790.1c0 .5 0 1-.1 1.4h-13.1c.5 3.2 2.8 4.5 5.3 4.5 1.8 0 3.6-.7 5.1-1.9l1.9 2.8a11 11 0 0 1-7.3 2.5c-5.3 0-9.1-3.7-9.1-9.3 0-5.5 3.6-9.3 8.8-9.3 5.1 0 8.5 3.8 8.5 9.3zm-13.1-1.5h9.2c-.4-2.8-2-4.4-4.5-4.4-2.8.1-4.4 1.8-4.7 4.4zM6952.2 2790.1c0 .5 0 1-.1 1.4H6939c.5 3.2 2.8 4.5 5.3 4.5 1.8 0 3.6-.7 5.1-1.9l1.9 2.8a11 11 0 0 1-7.3 2.5c-5.3 0-9.1-3.7-9.1-9.3 0-5.5 3.6-9.3 8.8-9.3 5.1 0 8.5 3.8 8.5 9.3zm-13.1-1.5h9.2c-.4-2.8-2-4.4-4.5-4.4-2.8.1-4.3 1.8-4.7 4.4zM6969 2781.3l-.9 3.8c-.8-.4-2-.6-2.9-.6-2.5 0-4.2 1.7-4.2 4.8v9.7h-3.9v-17.7h3.8v2c1.2-1.7 3-2.5 5.1-2.5 1.2 0 2.1.2 3 .5zM6986.8 2783.7l-2.5 2.6a5.98 5.98 0 0 0-4.3-1.8c-3 0-5.2 2.3-5.2 5.7s2.3 5.7 5.2 5.7c1.7 0 3.2-.8 4.3-1.8l2.4 2.7c-1.6 1.9-4 2.8-6.6 2.8-5.6 0-9.3-4-9.3-9.3s3.7-9.3 9.3-9.3c2.8-.2 5.2.8 6.7 2.7zM7008.6 2790.1c0 5.3-4.1 9.3-9.5 9.3s-9.5-4-9.5-9.3 4.1-9.3 9.5-9.3 9.5 4 9.5 9.3zm-15.1 0c0 3.3 2.4 5.7 5.5 5.7 3.2 0 5.6-2.3 5.6-5.7s-2.4-5.7-5.6-5.7c-3.1.1-5.5 2.4-5.5 5.7zM7018 2775.2c0 1.6-1.2 2.7-2.7 2.7-1.6 0-2.7-1.1-2.7-2.7 0-1.5 1.1-2.7 2.7-2.7 1.5-.1 2.7 1.1 2.7 2.7zm-4.6 23.8v-17.7h3.9v17.7h-3.9zM7039.8 2787.9v11.1h-3.9v-9.9c0-3-1.5-4.6-4.1-4.6-2.5 0-4.6 1.6-4.6 4.7v9.8h-3.9v-17.7h3.8v2.2c1.4-2.1 3.6-2.6 5.4-2.6 4.3-.1 7.3 2.8 7.3 7z" transform="translate(-6832 -2761)"/></svg>