<svg xmlns="http://www.w3.org/2000/svg" viewBox="2992 376.055 17.163 18.945">
  <defs>
    <style>
      .cls-1 {
        fill: #fff;
      }
    </style>
  </defs>
  <g id="Icon_1_" transform="translate(2992 376.055)">
    <path id="Path_5" data-name="Path 5" class="cls-1" d="M14.289,13.423a2.6,2.6,0,0,0-1.863.715L5.59,10.188a3.105,3.105,0,0,0,.094-.666,3.414,3.414,0,0,0-.094-.666l6.743-3.905a2.881,2.881,0,0,0,4.83-2.1,2.871,2.871,0,0,0-5.742,0,3.414,3.414,0,0,0,.094.666L4.781,7.426a2.866,2.866,0,0,0-1.962-.76A2.824,2.824,0,0,0,0,9.522a2.881,2.881,0,0,0,4.83,2.1l6.787,3.95a2.35,2.35,0,0,0-.094.617,2.77,2.77,0,1,0,2.766-2.761Z"/>
  </g>
</svg>
