<svg xmlns="http://www.w3.org/2000/svg" viewBox="3043 41 89 70"><defs><style>.cls-1{fill:none;stroke:rgba(103,255,156,.2);fill-rule:evenodd}</style></defs><g id="Group_3" data-name="Group 3" transform="translate(2700)"><path id="Path_15" data-name="Path 15" class="cls-1" d="M2751.41 3997.25c-.52.04-.94.05-1.2.05a15.16 15.16 0 0 1-15.16-15.16v-16.48c5.08-.08 17.61 1.02 24.52 10.64a15.17 15.17 0 0 1 1.77 14.43 9.41 9.41 0 0 1-4.7 5.14 11.93 11.93 0 0 1-1.5.63c2.21-8.45-.67-20.7-13.5-26.57 7.79 4.82 13.94 16.97 9.77 27.32z" transform="translate(-2391.3 -3924.15)"/><path id="Path_16" data-name="Path 16" class="cls-1" d="M2743.08 3981.16l-.6.03a7.44 7.44 0 0 1-7.43-7.45v-8.08c2.49-.04 8.64.5 12.03 5.22a7.45 7.45 0 0 1 .87 7.08 4.62 4.62 0 0 1-2.3 2.52 5.81 5.81 0 0 1-.74.31 11.22 11.22 0 0 0-6.62-13.04c3.82 2.36 6.83 8.33 4.79 13.4z" transform="translate(-2342.37 -3879.03)"/></g></svg>