<?xml version="1.0" encoding="utf-8"?>
<!-- Generator: Adobe Illustrator 22.0.1, SVG Export Plug-In . SVG Version: 6.00 Build 0)  -->
<svg version="1.1" id="Camada_1" xmlns="http://www.w3.org/2000/svg" xmlns:xlink="http://www.w3.org/1999/xlink" x="0px" y="0px"
	 viewBox="0 0 116.1 124.3" style="enable-background:new 0 0 116.1 124.3;" xml:space="preserve">
<style type="text/css">
	.st0{fill:#3CB054;}
	.st1{opacity:0.218;fill:#3CB054;enable-background:new    ;}
	.st2{fill:none;stroke:rgba(0,0,0,0.1); stroke-width: 0.5; stroke-linecap: round; stroke-dasharray: 3; transform: translate3d(8px, 12px, 0)}
</style>
<g transform="matrix(0.89, 0.45, -0.45, 0.89, -295.27, -514.88)">
	<g id="Path_2-2">
		<path class="st0" d="M531.4,347.8c-0.3,0.2-0.7,0.3-1.1,0.5c-1.4,0.5-4,1.1-7.9,1.1c-2.8-0.1-6.3-0.6-7.5-0.8
			c-0.2,0-0.3,0-0.3-0.1c-1.3-0.2-2.2-1.5-2-2.8c0.2-1.3,1.5-2.2,2.8-2l0.1,0c0.3,0.1,2.3,0.4,3.9,0.5c0,0,0.1,0,0.1,0
			c0,0,0-0.1,0-0.1l-14.3-10.4c-0.5-0.4-0.9-1-1-1.6c-0.1-0.7,0.1-1.3,0.4-1.8c0.4-0.5,1-0.9,1.6-1c0.7-0.1,1.3,0.1,1.8,0.4l6.9,5
			c-0.3-0.9-0.2-1.9,0.5-2.6c0.8-0.8,2.2-1,3.2-0.3c-0.1-0.3-0.2-0.6-0.2-0.9c0-0.7,0.2-1.3,0.7-1.8c0.9-0.8,2.2-1,3.2-0.3
			c-0.1-0.3-0.2-0.6-0.2-0.9c0-0.7,0.2-1.3,0.7-1.8l0,0c0.9-0.9,2.3-1,3.4-0.3l3.4,2.5c3,2.2,5.3,5.2,6.6,8.8l0.6,1.8
			c0.4,1,0.2,2.2-0.4,3l-3.4,4.7C532.6,347.1,532.1,347.5,531.4,347.8z M514.6,348.2c0,0,0.1,0,0.4,0.1c1.2,0.2,4.7,0.7,7.4,0.8
			c3.8,0.1,6.3-0.5,7.8-1.1c1.1-0.4,2.1-1,2.5-1.5l3.4-4.7c0.6-0.8,0.7-1.8,0.4-2.7l-0.6-1.8c-1.2-3.5-3.5-6.4-6.4-8.6l-3.4-2.5
			c-0.9-0.6-2.1-0.5-2.9,0.2c-0.4,0.4-0.6,0.9-0.6,1.5c0,0.6,0.2,1.1,0.6,1.5c0.1,0.1,0.1,0.1,0.2,0.2l0,0l-0.2,0.3c0,0,0,0,0,0
			l-0.9-0.7c-0.9-0.6-2.1-0.6-2.8,0.2c-0.4,0.4-0.6,0.9-0.6,1.5c0,0.6,0.2,1.1,0.6,1.5c0.1,0.1,0.1,0.1,0.2,0.2l0,0l-0.2,0.3
			c0,0,0,0,0,0l-0.9-0.7c-0.9-0.6-2.1-0.6-2.8,0.2c-0.4,0.4-0.6,0.9-0.6,1.5c0,0.6,0.2,1.1,0.6,1.5c0.1,0.1,0.1,0.1,0.2,0.2l0,0
			l-0.2,0.3c0,0,0,0,0,0l-7.9-5.8c-0.5-0.3-1-0.5-1.6-0.4c-0.6,0.1-1,0.4-1.4,0.8c-0.3,0.5-0.5,1-0.4,1.6c0.1,0.6,0.4,1,0.8,1.4
			l14.3,10.4c0.1,0.1,0.2,0.2,0.2,0.3c0,0.1,0,0.2-0.1,0.3c-0.1,0.1-0.3,0.2-0.4,0.2c-1-0.1-3.4-0.4-3.9-0.6l0,0
			c-1.1-0.2-2.2,0.6-2.4,1.7C512.8,346.9,513.5,348,514.6,348.2L514.6,348.2z"/>
	</g>
	<path id="Path_1" class="st1" d="M507.8,337.5l-3.8-2.8c-1.7-1.2-2.1-3.6-0.8-5.4s3.6-2.1,5.4-0.8c0,0,0,0,0,0l3.8,2.8
		c-0.1-3.4-3-6.1-6.4-5.9c-3.4,0.1-6.1,3-5.9,6.4s3,6.1,6.4,5.9C506.9,337.7,507.4,337.7,507.8,337.5z"/>
		<animateMotion dur="6s" repeatCount="indefinite" path="M18.5,12.2c8.6,0,17.4-0.9,24.5,6.1c8,9,2,21,1.7,31.4c-0.5,2.9-0.8,5.7-0.7,8.4c0.2,5.4,2.1,10.4,7.7,14.6
	c2,1.6,4.3,3,6.8,4.2c2.8,1.4,5.9,2.5,9.2,3.3c8.6,2.2,16.8-4.6,16.4-13.4c-0.7-15.6-3.9-38.5-17-46.4C50.5,10.4,28.9,2.6,17.6,6.6
	C14.6,7.7,15.3,12.2,18.5,12.2z">
      </animateMotion>
</g>
<path d="M18.5,12.2c8.6,0,17.4-0.9,24.5,6.1c8,9,2,21,1.7,31.4c-0.5,2.9-0.8,5.7-0.7,8.4c0.2,5.4,2.1,10.4,7.7,14.6
	c2,1.6,4.3,3,6.8,4.2c2.8,1.4,5.9,2.5,9.2,3.3c8.6,2.2,16.8-4.6,16.4-13.4c-0.7-15.6-3.9-38.5-17-46.4C50.5,10.4,28.9,2.6,17.6,6.6
	C14.6,7.7,15.3,12.2,18.5,12.2z" class="st2" />
</svg>
