<svg xmlns="http://www.w3.org/2000/svg" viewBox="0 0 116.1 124.3"><g transform="rotate(26.8 934.593 -878.996)"><path d="M531.4 347.8c-.3.2-.7.3-1.1.5-1.4.5-4 1.1-7.9 1.1-2.8-.1-6.3-.6-7.5-.8-.2 0-.3 0-.3-.1-1.3-.2-2.2-1.5-2-2.8.2-1.3 1.5-2.2 2.8-2h.1c.3.1 2.3.4 3.9.5h.1v-.1l-14.3-10.4c-.5-.4-.9-1-1-1.6-.1-.7.1-1.3.4-1.8.4-.5 1-.9 1.6-1 .7-.1 1.3.1 1.8.4l6.9 5c-.3-.9-.2-1.9.5-2.6.8-.8 2.2-1 3.2-.3-.1-.3-.2-.6-.2-.9 0-.7.2-1.3.7-1.8.9-.8 2.2-1 3.2-.3-.1-.3-.2-.6-.2-.9 0-.7.2-1.3.7-1.8.9-.9 2.3-1 3.4-.3l3.4 2.5c3 2.2 5.3 5.2 6.6 8.8l.6 1.8c.4 1 .2 2.2-.4 3l-3.4 4.7c-.4.5-.9.9-1.6 1.2zm-16.8.4s.1 0 .4.1c1.2.2 4.7.7 7.4.8 3.8.1 6.3-.5 7.8-1.1 1.1-.4 2.1-1 2.5-1.5l3.4-4.7c.6-.8.7-1.8.4-2.7l-.6-1.8c-1.2-3.5-3.5-6.4-6.4-8.6l-3.4-2.5c-.9-.6-2.1-.5-2.9.2-.4.4-.6.9-.6 1.5s.2 1.1.6 1.5l.2.2-.2.3-.9-.7c-.9-.6-2.1-.6-2.8.2-.4.4-.6.9-.6 1.5s.2 1.1.6 1.5l.2.2-.2.3-.9-.7c-.9-.6-2.1-.6-2.8.2-.4.4-.6.9-.6 1.5s.2 1.1.6 1.5l.2.2-.2.3-7.9-5.8c-.5-.3-1-.5-1.6-.4-.6.1-1 .4-1.4.8-.3.5-.5 1-.4 1.6.1.6.4 1 .8 1.4l14.3 10.4c.1.1.2.2.2.3 0 .1 0 .2-.1.3-.1.1-.3.2-.4.2-1-.1-3.4-.4-3.9-.6-1.1-.2-2.2.6-2.4 1.7-.2 1.1.5 2.2 1.6 2.4z" fill="#3cb054"/><path d="M507.8 337.5l-3.8-2.8c-1.7-1.2-2.1-3.6-.8-5.4s3.6-2.1 5.4-.8l3.8 2.8c-.1-3.4-3-6.1-6.4-5.9-3.4.1-6.1 3-5.9 6.4s3 6.1 6.4 5.9c.4 0 .9 0 1.3-.2z" opacity=".218" fill="#3cb054"/><animateMotion dur="6s" repeatCount="indefinite" path="M18.5,12.2c8.6,0,17.4-0.9,24.5,6.1c8,9,2,21,1.7,31.4c-0.5,2.9-0.8,5.7-0.7,8.4c0.2,5.4,2.1,10.4,7.7,14.6	c2,1.6,4.3,3,6.8,4.2c2.8,1.4,5.9,2.5,9.2,3.3c8.6,2.2,16.8-4.6,16.4-13.4c-0.7-15.6-3.9-38.5-17-46.4C50.5,10.4,28.9,2.6,17.6,6.6	C14.6,7.7,15.3,12.2,18.5,12.2z"/></g><path d="M18.5 12.2c8.6 0 17.4-.9 24.5 6.1 8 9 2 21 1.7 31.4-.5 2.9-.8 5.7-.7 8.4.2 5.4 2.1 10.4 7.7 14.6 2 1.6 4.3 3 6.8 4.2 2.8 1.4 5.9 2.5 9.2 3.3 8.6 2.2 16.8-4.6 16.4-13.4-.7-15.6-3.9-38.5-17-46.4-16.6-10-38.2-17.8-49.5-13.8-3 1.1-2.3 5.6.9 5.6z" style="transform:translate3d(8px,12px,0)" fill="none" stroke="rgba(0,0,0,.1)" stroke-width=".5" stroke-linecap="round" stroke-dasharray="3"/></svg>