<svg xmlns="http://www.w3.org/2000/svg" viewBox="0 0 612 130.4"><path d="M65.44 127.99c-2.12.18-3.8.22-4.82.22C27.16 128.28 0 101.04 0 67.59V1.66c20.3-.31 70.4 4.11 98.04 42.54a60.33 60.33 0 0 1 11.37 35.34c0 7.9-1.52 15.46-4.28 22.4l-.02-.02a37.64 37.64 0 0 1-18.78 20.54c-1.98.99-4 1.81-6 2.5 8.82-33.79-2.71-82.72-53.96-106.24 31.13 19.3 55.71 67.87 39.07 109.27z" fill="#3cb054"/><path d="M189.9 34.1c-7.76 0-13.2 3.12-17 7.94v-6.52h-11.83v76.92h11.84V83.37c3.8 4.72 9.23 7.84 16.99 7.84 15.17 0 27.12-11.9 27.12-28.5 0-16.62-11.95-28.6-27.12-28.6zm-1.42 11.24c10.2 0 16.37 7.83 16.37 17.36 0 9.54-6.18 17.37-16.37 17.37-9.74 0-16.36-7.46-16.36-17.37 0-9.9 6.62-17.36 16.36-17.36zM254.8 34.1c-15.98 0-27.02 11.62-27.02 28.6 0 17.18 11.44 28.5 27.75 28.5 8.21 0 15.69-1.97 22.31-7.64l-5.89-8.4a25.87 25.87 0 0 1-15.68 5.67c-7.65 0-14.61-4.06-16.14-13.78h40.09c.17-1.32.23-2.93.23-4.44 0-16.9-10.54-28.5-25.66-28.5zm-.23 10.58c7.53 0 12.46 4.9 13.76 13.4h-28.15c1.2-7.93 5.95-13.4 14.39-13.4zM318.22 34.1c-15.97 0-27.01 11.62-27.01 28.6 0 17.18 11.43 28.5 27.74 28.5 8.21 0 15.69-1.97 22.31-7.64l-5.88-8.4a25.87 25.87 0 0 1-15.7 5.67c-7.64 0-14.6-4.06-16.13-13.78h40.1c.16-1.32.22-2.93.22-4.44 0-16.9-10.53-28.5-25.65-28.5zm-.23 10.58c7.53 0 12.46 4.9 13.76 13.4h-28.14c1.19-7.93 5.94-13.4 14.38-13.4zM386 34.1c-6.63 0-12.12 2.37-15.74 7.56v-6.14h-11.72V89.8h11.83V59.97c0-9.25 5.38-14.54 12.91-14.54 2.9 0 6.51.66 9 1.99l2.84-11.7c-2.72-1.14-5.5-1.61-9.12-1.61zM429.55 34.1C412.33 34.1 401 46.48 401 62.7c0 16.24 11.32 28.5 28.54 28.5 8.15 0 15.29-2.92 20.27-8.67l-7.3-8.12c-3.46 3.2-8.1 5.66-13.31 5.66-9.12 0-16.03-7.17-16.03-17.37 0-10.28 6.91-17.36 16.03-17.36 5.2 0 9.17 1.98 13.02 5.57l7.6-8.12c-4.82-5.66-12.13-8.68-20.28-8.68zM487.2 34.1c-16.77 0-29.17 12.37-29.17 28.6 0 16.24 12.4 28.5 29.16 28.5s29.23-12.26 29.23-28.5c0-16.23-12.46-28.6-29.23-28.6zm0 11.24c9.68 0 17.04 7.08 17.04 17.36 0 10.2-7.36 17.37-17.05 17.37-9.68 0-16.98-7.17-16.98-17.37 0-10.28 7.3-17.36 16.98-17.36zM542.97 89.8V35.51h-11.89V89.8h11.9zm-6-81.36c-4.76 0-8.27 3.68-8.27 8.4a8.01 8.01 0 0 0 8.27 8.2c4.7 0 8.38-3.48 8.38-8.2a8.3 8.3 0 0 0-8.38-8.4zM589.97 34.1c-5.54 0-12.28 1.7-16.64 8.12v-6.7h-11.78V89.8h11.89V59.78c0-9.34 6.4-14.35 14.04-14.35 7.99 0 12.63 5.1 12.63 14.16v30.2h11.9V55.72c0-12.64-9.12-21.61-22.04-21.61z"/></svg>