<svg xmlns="http://www.w3.org/2000/svg" xmlns:xlink="http://www.w3.org/1999/xlink" viewBox="0 0 183 20.422">
  <defs>
    <style>
      .cls-1 {
        fill: url(#linear-gradient);
      }

      .cls-2, .cls-4, .cls-5 {
        fill: #000;
      }

      .cls-3 {
        fill: #00aed7;
      }

      .cls-4 {
        opacity: 0.521;
      }

      .cls-5 {
        font-size: 17px;
        font-family: InterUI-Bold, Inter UI;
        font-weight: 700;
      }
    </style>
    <linearGradient id="linear-gradient" y1="0.501" x2="1" y2="0.501" gradientUnits="objectBoundingBox">
      <stop offset="0" stop-color="#374a9f"/>
      <stop offset="1" stop-color="#00aed7"/>
    </linearGradient>
  </defs>
  <g id="Group_4" data-name="Group 4" transform="translate(-139 -33.578)">
    <g id="unocode-logo" transform="translate(126.1 26.478)">
      <path id="Path_1" data-name="Path 1" class="cls-1" d="M232.782,54.171l-16.682-10,2.776-1.671,13.906,8.353Z" transform="translate(-155.388 -27.071)"/>
      <path id="Path_2" data-name="Path 2" class="cls-2" d="M25.018,21.647h2.447v8.424a3.7,3.7,0,0,1-1.976,3.224,9.686,9.686,0,0,1-5.294,1.271,9.934,9.934,0,0,1-5.318-1.247A3.728,3.728,0,0,1,12.9,30.094V21.647h2.447v7.929c0,1.859,1.624,2.776,4.847,2.776s4.824-.918,4.824-2.776ZM42.312,32.118,33.771,21.647H30.147V34.188h2.447V23.718l8.518,10.471h3.647V21.647H42.312V32.118Zm69.012-4.306a6.947,6.947,0,0,1-2.094,4.729,4.685,4.685,0,0,1-1.882,1.129,8.756,8.756,0,0,1-2.918.518H95.912V21.647h8.118a7.759,7.759,0,0,1,5.294,1.741A5.646,5.646,0,0,1,111.324,27.812Zm-2.635.165a3.92,3.92,0,0,0-1.224-3.012,4.645,4.645,0,0,0-3.271-1.129H98.335v8.141h6.235a3.991,3.991,0,0,0,2.941-1.129A3.812,3.812,0,0,0,108.688,27.976Zm7.082.776h7.365V26.565h-7.365V23.835H126.9l-.776-2.212h-12.8V34.165h12.8l.776-2.212H115.771Zm-52.494-.871a5.945,5.945,0,0,1-2.635,5.012,9.182,9.182,0,0,1-5.6,1.647,9.255,9.255,0,0,1-5.624-1.647,6.046,6.046,0,0,1,.024-10,10.1,10.1,0,0,1,11.2,0A5.992,5.992,0,0,1,63.276,27.882Zm-2.565,0a3.934,3.934,0,0,0-1.6-3.2,6.365,6.365,0,0,0-4.118-1.247,6.488,6.488,0,0,0-4.141,1.271,4.065,4.065,0,0,0-.024,6.447A6.6,6.6,0,0,0,54.994,32.4a6.482,6.482,0,0,0,4.141-1.247,4.043,4.043,0,0,0,1.576-3.271Zm33.176,0a5.945,5.945,0,0,1-2.635,5.012,10.384,10.384,0,0,1-11.224,0,6.046,6.046,0,0,1,.024-10,10.1,10.1,0,0,1,11.2,0,5.934,5.934,0,0,1,2.635,4.988Zm-2.541,0a3.934,3.934,0,0,0-1.6-3.2,6.365,6.365,0,0,0-4.118-1.247,6.488,6.488,0,0,0-4.141,1.271,4.065,4.065,0,0,0-.024,6.447A6.6,6.6,0,0,0,85.629,32.4a6.482,6.482,0,0,0,4.141-1.247,4.043,4.043,0,0,0,1.576-3.271Z" transform="translate(0 -10.782)"/>
      <path id="Path_3" data-name="Path 3" class="cls-3" d="M232.782,7.1,216.1,17.1l2.776,1.671,13.906-8.329Z" transform="translate(-155.388)"/>
    </g>
    <rect id="Rectangle_2" data-name="Rectangle 2" class="cls-4" width="1" height="20" transform="translate(263 34)"/>
    <text id="DOCS" class="cls-5" transform="translate(274 50)"><tspan x="0" y="0">DOCS</tspan></text>
  </g>
</svg>
